<svg width="25" height="43" viewBox="0 0 25 43" fill="none" xmlns="http://www.w3.org/2000/svg">
<path d="M17.6017 23C16.375 23 15.2503 23.3639 14.259 24.0817C13.3086 24.7698 12.6758 25.6463 12.3033 26.2836C11.9307 25.6462 11.298 24.7698 10.3476 24.0817C9.35625 23.3639 8.23158 23 7.00486 23C3.58156 23 1 25.6214 1 29.0977C1 32.8532 4.22068 35.4227 9.09636 39.3126C9.92433 39.9732 10.8628 40.722 11.8382 41.5205C11.9668 41.626 12.132 41.684 12.3033 41.684C12.4746 41.684 12.6397 41.626 12.7683 41.5206C13.7438 40.7219 14.6823 39.9732 15.5107 39.3122C20.3859 35.4227 23.6065 32.8532 23.6065 29.0977C23.6065 25.6214 21.025 23 17.6017 23Z" fill="white"/>
<path fill-rule="evenodd" clip-rule="evenodd" d="M13.6725 23.2717C14.8349 22.4301 16.1649 22 17.6017 22C21.5917 22 24.6065 25.0836 24.6065 29.0977C24.6065 31.3047 23.6451 33.1123 22.1356 34.8176C20.6634 36.4807 18.5832 38.1402 16.1954 40.0452L16.1344 40.0939C16.1344 40.0939 16.1344 40.0939 16.1344 40.0939C15.3054 40.7553 14.3717 41.5002 13.4018 42.2943C13.0887 42.5508 12.6979 42.684 12.3033 42.684C11.9084 42.684 11.5174 42.5506 11.2043 42.2939C10.2346 41.5 9.30102 40.7552 8.47271 40.0943C8.47271 40.0943 8.4727 40.0943 8.47269 40.0943L8.41165 40.0456C6.0236 38.1404 3.94328 36.4808 2.47103 34.8176C0.961488 33.1123 0 31.3047 0 29.0977C0 25.0836 3.01488 22 7.00486 22C8.44166 22 9.77168 22.4301 10.934 23.2717C11.4822 23.6686 11.9353 24.1161 12.3033 24.5531C12.6713 24.1161 13.1244 23.6686 13.6725 23.2717ZM12.9191 25.38C12.6645 25.7024 12.4607 26.0143 12.3033 26.2836C12.1459 26.0143 11.9421 25.7024 11.6874 25.38C11.3394 24.9393 10.8965 24.4791 10.3476 24.0817C9.35625 23.3639 8.23158 23 7.00486 23C3.58156 23 1 25.6214 1 29.0977C1 32.8532 4.22068 35.4227 9.09636 39.3126L9.09689 39.313C9.92472 39.9735 10.863 40.7221 11.8382 41.5205C11.9668 41.626 12.132 41.684 12.3033 41.684C12.4746 41.684 12.6397 41.626 12.7683 41.5206C13.7438 40.7219 14.6823 39.9732 15.5107 39.3122C20.3859 35.4227 23.6065 32.8532 23.6065 29.0977C23.6065 25.6214 21.025 23 17.6017 23C16.375 23 15.2503 23.3639 14.259 24.0817C13.7101 24.4791 13.2672 24.9393 12.9191 25.38Z" fill="#2D2D2D"/>
<path d="M17.6017 1C16.375 1 15.2503 1.36392 14.259 2.08169C13.3086 2.76981 12.6758 3.64626 12.3033 4.28359C11.9307 3.64622 11.298 2.76981 10.3476 2.08169C9.35625 1.36392 8.23158 1 7.00486 1C3.58156 1 1 3.62142 1 7.09768C1 10.8532 4.22068 13.4227 9.09636 17.3126C9.92433 17.9732 10.8628 18.722 11.8382 19.5205C11.9668 19.626 12.132 19.684 12.3033 19.684C12.4746 19.684 12.6397 19.626 12.7683 19.5206C13.7438 18.7219 14.6823 17.9732 15.5107 17.3122C20.3859 13.4227 23.6065 10.8532 23.6065 7.09768C23.6065 3.62142 21.025 1 17.6017 1Z" fill="#D01345"/>
<path fill-rule="evenodd" clip-rule="evenodd" d="M13.6725 1.27171C14.8349 0.430112 16.1649 0 17.6017 0C21.5917 0 24.6065 3.08365 24.6065 7.09768C24.6065 9.30466 23.6451 11.1123 22.1356 12.8176C20.6634 14.4807 18.5832 16.1402 16.1954 18.0452L16.1344 18.0939C16.1344 18.0939 16.1344 18.0939 16.1344 18.0939C15.3054 18.7553 14.3717 19.5002 13.4018 20.2943C13.0887 20.5508 12.6979 20.684 12.3033 20.684C11.9084 20.684 11.5174 20.5506 11.2043 20.2939C10.2346 19.5 9.30102 18.7552 8.47271 18.0943C8.47271 18.0943 8.4727 18.0943 8.47269 18.0943L8.41165 18.0456C6.0236 16.1404 3.94328 14.4808 2.47103 12.8176C0.961488 11.1123 0 9.30466 0 7.09768C0 3.08365 3.01488 0 7.00486 0C8.44166 0 9.77168 0.430112 10.934 1.27171C11.4822 1.66857 11.9353 2.11612 12.3033 2.55306C12.6713 2.11612 13.1244 1.66857 13.6725 1.27171ZM12.9191 3.38C12.6645 3.70239 12.4607 4.01433 12.3033 4.28359C12.1459 4.01432 11.9421 3.70238 11.6874 3.38C11.3394 2.9393 10.8965 2.47909 10.3476 2.08169C9.35625 1.36392 8.23158 1 7.00486 1C3.58156 1 1 3.62142 1 7.09768C1 10.8532 4.22068 13.4227 9.09636 17.3126L9.09689 17.313C9.92472 17.9735 10.863 18.7221 11.8382 19.5205C11.9668 19.626 12.132 19.684 12.3033 19.684C12.4746 19.684 12.6397 19.626 12.7683 19.5206C13.7438 18.7219 14.6823 17.9732 15.5107 17.3122C20.3859 13.4227 23.6065 10.8532 23.6065 7.09768C23.6065 3.62142 21.025 1 17.6017 1C16.375 1 15.2503 1.36392 14.259 2.08169C13.7101 2.47909 13.2672 2.93931 12.9191 3.38Z" fill="white"/>
</svg>
